<svg xmlns="http://www.w3.org/2000/svg" version="1.1" xmlns:xlink="http://www.w3.org/1999/xlink" xmlns:svgjs="http://svgjs.dev/svgjs" width="1440" height="560" preserveAspectRatio="none" viewBox="0 0 1440 560"><g mask="url(&quot;#SvgjsMask1500&quot;)" fill="none"><rect width="1440" height="560" x="0" y="0" fill="url(&quot;#SvgjsLinearGradient1501&quot;)"></rect><path d="M-118.3 43.63 a161.93 161.93 0 1 0 323.86 0 a161.93 161.93 0 1 0 -323.86 0z" fill="rgba(115, 102, 28, 1)" class="triangle-float1"></path><path d="M-69.34 -5.33 a64.01 64.01 0 1 0 128.02 0 a64.01 64.01 0 1 0 -128.02 0z" fill="rgba(115, 102, 28, 1)" class="triangle-float1"></path><path d="M-112.34 37.67 a150.01 150.01 0 1 0 300.02 0 a150.01 150.01 0 1 0 -300.02 0z" fill="rgba(115, 102, 28, 1)" class="triangle-float3"></path><path d="M1199.16 54.18 a183.02 183.02 0 1 0 366.04 0 a183.02 183.02 0 1 0 -366.04 0z" fill="rgba(115, 102, 28, 1)" class="triangle-float2"></path><path d="M1285.65 -32.31 a10.04 10.04 0 1 0 20.08 0 a10.04 10.04 0 1 0 -20.08 0z" fill="rgba(115, 102, 28, 1)" class="triangle-float1"></path><path d="M1264.25 -10.91 a52.84 52.84 0 1 0 105.68 0 a52.84 52.84 0 1 0 -105.68 0z" fill="rgba(115, 102, 28, 1)" class="triangle-float3"></path><path d="M-53.15 426.47 a31.62 31.62 0 1 0 63.24 0 a31.62 31.62 0 1 0 -63.24 0z" fill="rgba(115, 102, 28, 1)" class="triangle-float1"></path><path d="M-92.62 465.95 a110.57 110.57 0 1 0 221.14 0 a110.57 110.57 0 1 0 -221.14 0z" fill="rgba(115, 102, 28, 1)" class="triangle-float1"></path><path d="M-89.33 462.67 a104 104 0 1 0 208 0 a104 104 0 1 0 -208 0z" fill="rgba(115, 102, 28, 1)" class="triangle-float2"></path><path d="M1242.35 458.98 a96.63 96.63 0 1 0 193.26 0 a96.63 96.63 0 1 0 -193.26 0z" fill="rgba(115, 102, 28, 1)" class="triangle-float1"></path><path d="M1255.5 445.83 a70.33 70.33 0 1 0 140.66 0 a70.33 70.33 0 1 0 -140.66 0z" fill="rgba(115, 102, 28, 1)" class="triangle-float3"></path><path d="M1237.31 464.02 a106.71 106.71 0 1 0 213.42 0 a106.71 106.71 0 1 0 -213.42 0z" fill="rgba(115, 102, 28, 1)" class="triangle-float2"></path></g><defs><mask id="SvgjsMask1500"><rect width="1440" height="560" fill="#ffffff"></rect></mask><linearGradient x1="100%" y1="50%" x2="0%" y2="50%" gradientUnits="userSpaceOnUse" id="SvgjsLinearGradient1501"><stop stop-color="#0e2a47" offset="0"></stop><stop stop-color="rgba(58, 65, 13, 1)" offset="1"></stop></linearGradient></defs></svg>